# xmcd
#
# Track frame offsets: 
#        150
#        9369
#        24227
#        43950
#        61681
#        78625
#        98362
#        133501
#        151904
#        170109
#        193699
#
# Disc length: 2726 seconds
#
# Revision: 2
# Processed by: cddbd v1.5.2PL0 Copyright (c) Steve Scherf et al.
# Submitted via: ExactAudioCopy v0.99pb5
#
DISCID=7f0aa40b
DTITLE=The Eagles - Long Road Out Of Eden [Disc 1]
DYEAR=2007
DGENRE=Rock
TTITLE0=No More Walks In The Wood
TTITLE1=How Long
TTITLE2=Busy Being Fabulous
TTITLE3=What Do I Do With My Heart
TTITLE4=Guilty Of The Crime
TTITLE5=I Don't Want To Hear Any More
TTITLE6=Waiting In The Weeds
TTITLE7=No More Cloudy Days
TTITLE8=Fast Company
TTITLE9=Do Something
TTITLE10=You Are Not Alone
EXTD=
EXTT0=
EXTT1=
EXTT2=
EXTT3=
EXTT4=
EXTT5=
EXTT6=
EXTT7=
EXTT8=
EXTT9=
EXTT10=
PLAYORDER=
